<mxfile host="drawio-plugin" agent="Mozilla/5.0 (Windows NT 10.0; Win64; x64) AppleWebKit/537.36 (KHTML, like Gecko) Chrome/111.0.0.0 Safari/537.36" modified="2025-03-10T05:01:51.085Z" version="22.1.22" etag="X5suZObmoEYNqsEt3AVN" type="embed">
  <diagram name="Page-1" id="c4acf3e9-155e-7222-9cf6-157b1a14988f">
    <mxGraphModel dx="1356" dy="743" grid="0" gridSize="10" guides="1" tooltips="1" connect="1" arrows="1" fold="1" page="1" pageScale="1" pageWidth="3300" pageHeight="4681" background="none" math="0" shadow="0">
      <root>
        <mxCell id="0" />
        <mxCell id="1" parent="0" />
        <mxCell id="2" value="编译" style="whiteSpace=wrap;html=1;aspect=fixed;movable=0;resizable=0;rotatable=0;deletable=0;editable=0;locked=1;connectable=0;" vertex="1" parent="1">
          <mxGeometry x="90" y="80" width="110" height="110" as="geometry" />
        </mxCell>
        <mxCell id="34" value="" style="edgeStyle=orthogonalEdgeStyle;rounded=0;orthogonalLoop=1;jettySize=auto;html=1;movable=0;resizable=0;rotatable=0;deletable=0;editable=0;locked=1;connectable=0;" edge="1" parent="1" source="5" target="33">
          <mxGeometry relative="1" as="geometry" />
        </mxCell>
        <mxCell id="5" value="执行" style="whiteSpace=wrap;html=1;aspect=fixed;movable=0;resizable=0;rotatable=0;deletable=0;editable=0;locked=1;connectable=0;" vertex="1" parent="1">
          <mxGeometry x="93" y="468" width="102" height="102" as="geometry" />
        </mxCell>
        <mxCell id="11" value="" style="endArrow=classic;html=1;rounded=0;exitX=0.5;exitY=1;exitDx=0;exitDy=0;entryX=0.5;entryY=0;entryDx=0;entryDy=0;movable=0;resizable=0;rotatable=0;deletable=0;editable=0;locked=1;connectable=0;" edge="1" parent="1" source="4" target="5">
          <mxGeometry width="50" height="50" relative="1" as="geometry">
            <mxPoint x="200" y="530" as="sourcePoint" />
            <mxPoint x="250" y="480" as="targetPoint" />
          </mxGeometry>
        </mxCell>
        <mxCell id="12" value="" style="edgeStyle=orthogonalEdgeStyle;rounded=0;orthogonalLoop=1;jettySize=auto;html=1;exitX=0.5;exitY=1;exitDx=0;exitDy=0;movable=0;resizable=0;rotatable=0;deletable=0;editable=0;locked=1;connectable=0;" edge="1" parent="1" source="2" target="4">
          <mxGeometry relative="1" as="geometry">
            <mxPoint x="160" y="300" as="sourcePoint" />
            <mxPoint x="160" y="390" as="targetPoint" />
          </mxGeometry>
        </mxCell>
        <mxCell id="4" value="加载" style="whiteSpace=wrap;html=1;aspect=fixed;movable=0;resizable=0;rotatable=0;deletable=0;editable=0;locked=1;connectable=0;" vertex="1" parent="1">
          <mxGeometry x="95" y="279" width="100" height="100" as="geometry" />
        </mxCell>
        <mxCell id="24" value="" style="edgeStyle=orthogonalEdgeStyle;rounded=0;orthogonalLoop=1;jettySize=auto;html=1;movable=0;resizable=0;rotatable=0;deletable=0;editable=0;locked=1;connectable=0;" edge="1" parent="1" source="13" target="15">
          <mxGeometry relative="1" as="geometry" />
        </mxCell>
        <mxCell id="13" value="源码（.java）" style="shape=step;perimeter=stepPerimeter;whiteSpace=wrap;html=1;fixedSize=1;movable=0;resizable=0;rotatable=0;deletable=0;editable=0;locked=1;connectable=0;" vertex="1" parent="1">
          <mxGeometry x="220" y="110" width="160" height="50" as="geometry" />
        </mxCell>
        <mxCell id="26" value="" style="edgeStyle=orthogonalEdgeStyle;rounded=0;orthogonalLoop=1;jettySize=auto;html=1;movable=0;resizable=0;rotatable=0;deletable=0;editable=0;locked=1;connectable=0;" edge="1" parent="1" source="15" target="16">
          <mxGeometry relative="1" as="geometry" />
        </mxCell>
        <mxCell id="15" value="javac编译" style="shape=step;perimeter=stepPerimeter;whiteSpace=wrap;html=1;fixedSize=1;movable=0;resizable=0;rotatable=0;deletable=0;editable=0;locked=1;connectable=0;" vertex="1" parent="1">
          <mxGeometry x="410" y="110" width="160" height="49" as="geometry" />
        </mxCell>
        <mxCell id="16" value="字节码文件 (.class)" style="shape=step;perimeter=stepPerimeter;whiteSpace=wrap;html=1;fixedSize=1;movable=0;resizable=0;rotatable=0;deletable=0;editable=0;locked=1;connectable=0;" vertex="1" parent="1">
          <mxGeometry x="608" y="110" width="160" height="51" as="geometry" />
        </mxCell>
        <mxCell id="27" value="" style="edgeStyle=orthogonalEdgeStyle;rounded=0;orthogonalLoop=1;jettySize=auto;html=1;movable=0;resizable=0;rotatable=0;deletable=0;editable=0;locked=1;connectable=0;" edge="1" parent="1" source="19" target="20">
          <mxGeometry relative="1" as="geometry" />
        </mxCell>
        <mxCell id="19" value="加载：&lt;br&gt;Classloader加载字节码到内存" style="shape=step;perimeter=stepPerimeter;whiteSpace=wrap;html=1;fixedSize=1;movable=0;resizable=0;rotatable=0;deletable=0;editable=0;locked=1;connectable=0;" vertex="1" parent="1">
          <mxGeometry x="210" y="299" width="180" height="54" as="geometry" />
        </mxCell>
        <mxCell id="28" value="" style="edgeStyle=orthogonalEdgeStyle;rounded=0;orthogonalLoop=1;jettySize=auto;html=1;movable=0;resizable=0;rotatable=0;deletable=0;editable=0;locked=1;connectable=0;" edge="1" parent="1" source="20" target="21">
          <mxGeometry relative="1" as="geometry" />
        </mxCell>
        <mxCell id="20" value="验证：&lt;br&gt;检查字节码文件的格式和&lt;br&gt;安全性" style="shape=step;perimeter=stepPerimeter;whiteSpace=wrap;html=1;fixedSize=1;movable=0;resizable=0;rotatable=0;deletable=0;editable=0;locked=1;connectable=0;" vertex="1" parent="1">
          <mxGeometry x="407" y="299.62" width="190" height="54.25" as="geometry" />
        </mxCell>
        <mxCell id="29" value="" style="edgeStyle=orthogonalEdgeStyle;rounded=0;orthogonalLoop=1;jettySize=auto;html=1;movable=0;resizable=0;rotatable=0;deletable=0;editable=0;locked=1;connectable=0;" edge="1" parent="1" source="21" target="22">
          <mxGeometry relative="1" as="geometry" />
        </mxCell>
        <mxCell id="21" value="准备：&lt;br&gt;为类的静态变量分配内存并初始化默认值" style="shape=step;perimeter=stepPerimeter;whiteSpace=wrap;html=1;fixedSize=1;movable=0;resizable=0;rotatable=0;deletable=0;editable=0;locked=1;connectable=0;" vertex="1" parent="1">
          <mxGeometry x="613" y="300.25" width="249" height="53" as="geometry" />
        </mxCell>
        <mxCell id="32" value="" style="edgeStyle=orthogonalEdgeStyle;rounded=0;orthogonalLoop=1;jettySize=auto;html=1;movable=0;resizable=0;rotatable=0;deletable=0;editable=0;locked=1;connectable=0;" edge="1" parent="1" source="22" target="23">
          <mxGeometry relative="1" as="geometry" />
        </mxCell>
        <mxCell id="22" value="解析：&lt;br&gt;将符号引用替换为直接引用" style="shape=step;perimeter=stepPerimeter;whiteSpace=wrap;html=1;fixedSize=1;movable=0;resizable=0;rotatable=0;deletable=0;editable=0;locked=1;connectable=0;" vertex="1" parent="1">
          <mxGeometry x="898" y="298" width="190" height="57" as="geometry" />
        </mxCell>
        <mxCell id="23" value="初始化：&lt;br&gt;执行类的静态初始化块和静态变量的赋值操作" style="shape=step;perimeter=stepPerimeter;whiteSpace=wrap;html=1;fixedSize=1;movable=0;resizable=0;rotatable=0;deletable=0;editable=0;locked=1;connectable=0;" vertex="1" parent="1">
          <mxGeometry x="1119" y="297" width="293" height="59" as="geometry" />
        </mxCell>
        <mxCell id="30" value="解释器：&lt;br&gt;将字节码逐条解释为机器码并执行" style="shape=step;perimeter=stepPerimeter;whiteSpace=wrap;html=1;fixedSize=1;movable=0;resizable=0;rotatable=0;deletable=0;editable=0;locked=1;connectable=0;" vertex="1" parent="1">
          <mxGeometry x="210" y="474" width="510" height="38" as="geometry" />
        </mxCell>
        <mxCell id="31" value="JIT编译器：&lt;br&gt;Just-In-Time Compiler 将热点代码编译为本地机器代码，提高执行效率。" style="shape=step;perimeter=stepPerimeter;whiteSpace=wrap;html=1;fixedSize=1;movable=0;resizable=0;rotatable=0;deletable=0;editable=0;locked=1;connectable=0;" vertex="1" parent="1">
          <mxGeometry x="210" y="517" width="509" height="41" as="geometry" />
        </mxCell>
        <mxCell id="33" value="GC" style="whiteSpace=wrap;html=1;aspect=fixed;movable=0;resizable=0;rotatable=0;deletable=0;editable=0;locked=1;connectable=0;" vertex="1" parent="1">
          <mxGeometry x="95" y="657" width="98" height="98" as="geometry" />
        </mxCell>
        <mxCell id="35" value="分代垃圾回收" style="shape=step;perimeter=stepPerimeter;whiteSpace=wrap;html=1;fixedSize=1;movable=0;resizable=0;rotatable=0;deletable=0;editable=0;locked=1;connectable=0;" vertex="1" parent="1">
          <mxGeometry x="246" y="612" width="168" height="37" as="geometry" />
        </mxCell>
        <mxCell id="36" value="G1&lt;br&gt;垃圾回收" style="shape=step;perimeter=stepPerimeter;whiteSpace=wrap;html=1;fixedSize=1;movable=0;resizable=0;rotatable=0;deletable=0;editable=0;locked=1;connectable=0;" vertex="1" parent="1">
          <mxGeometry x="232" y="752" width="168" height="37" as="geometry" />
        </mxCell>
        <mxCell id="37" value="新生代：采用 复制算法（将存活对象复制到Survivor区）&lt;br&gt;" style="shape=note;whiteSpace=wrap;html=1;backgroundOutline=1;darkOpacity=0.05;movable=0;resizable=0;rotatable=0;deletable=0;editable=0;locked=1;connectable=0;" vertex="1" parent="1">
          <mxGeometry x="395" y="635" width="134" height="88" as="geometry" />
        </mxCell>
        <mxCell id="38" value="老年代：采用 标记-清楚算法和标记整理算法" style="shape=note;whiteSpace=wrap;html=1;backgroundOutline=1;darkOpacity=0.05;movable=0;resizable=0;rotatable=0;deletable=0;editable=0;locked=1;connectable=0;" vertex="1" parent="1">
          <mxGeometry x="534" y="635" width="134" height="88" as="geometry" />
        </mxCell>
        <mxCell id="45" value="1.分区式堆管理：将堆划分为多个区域（Region）&lt;br&gt;2.优先回收垃圾最多的区域&lt;br&gt;3.提供更低的垃圾回收停顿时间。&lt;br&gt;" style="shape=note;whiteSpace=wrap;html=1;backgroundOutline=1;darkOpacity=0.05;movable=0;resizable=0;rotatable=0;deletable=0;editable=0;locked=1;connectable=0;" vertex="1" parent="1">
          <mxGeometry x="392" y="772" width="246" height="101" as="geometry" />
        </mxCell>
        <mxCell id="46" value="调优参数&lt;br&gt;1.-XX：+UseG1GC：启用G1GC&lt;br&gt;2.-XX：MaxGCPauseMillis：设置最大暂停时间。" style="shape=note;whiteSpace=wrap;html=1;backgroundOutline=1;darkOpacity=0.05;movable=0;resizable=0;rotatable=0;deletable=0;editable=0;locked=1;connectable=0;" vertex="1" parent="1">
          <mxGeometry x="652" y="772" width="246" height="101" as="geometry" />
        </mxCell>
      </root>
    </mxGraphModel>
  </diagram>
</mxfile>
